<?xml version="1.0" encoding="UTF-8"?>
<svg id="_Слой_1" data-name="Слой 1" xmlns="http://www.w3.org/2000/svg" viewBox="0 0 568.03 158.6">
  <defs>
    <style>
      .cls-1 {
        fill: #109b47;
        fill-rule: evenodd;
        stroke-width: 0px;
      }
    </style>
  </defs>
  <g id="_Слой_1-2" data-name="Слой_1">
    <g id="_1361337434960" data-name=" 1361337434960">
      <path class="cls-1" d="M396.43,60.2h-86.2c-14.3,0-20.7,4-23.3,12.1l-8.1,26.2h86.2c14.3,0,20.7-4,23.3-12.1l8.1-26.2Z"/>
      <path class="cls-1" d="M100.73,38.4h-16.3c-32.6,0-60.4,81.9-22,81.8h24.8c14.3,0,24.8,5.2,20.1,19.1l-6.4,19.2h-26.3l-21.3-.2c-27.3-.2-44.9-13.6-51.2-33.9-6.9-22,2.9-67.7,30.9-97.1C49.33,10.2,71.93,0,100.93,0h53.5l-8.4,24c-5.4,15.5-16.5,14.4-22.8,14.4h-22.5Z"/>
      <path class="cls-1" d="M375.43,120.3h-86.2c-14.3,0-20.7,4-23.3,12.1l-8.1,26.2h86.2c14.3,0,20.7-4,23.3-12.1l8.1-26.2h0ZM416.43.1h-86.2c-14.3,0-20.7,4-23.3,12.1l-8.1,26.2h86.2c14.3,0,20.7-4,23.3-12.1L416.43.1h0Z"/>
      <path class="cls-1" d="M199.63,38.3h21.5c18.3,0,14.1,22.8,4.8,45.1-8.2,19.6-22.6,37-39.8,37h-35.8c-14.3,0-20.9,4-23.6,12.1l-8.8,26.1h26.3l25.6-.2c22.8-.2,41.3-1.8,63.1-21.4,23-20.7,49.8-74.4,45.2-105.4C274.53,7.2,261.43.1,229.73.1h-57.7l-33.6,98.3h21.3c12.7,0,19.1.2,25.9-18l14-42.1h0Z"/>
      <path class="cls-1" d="M382.03,158.6h40.7l17.4-49.9,18.2-15.3,14.4,45.1c4.4,14,9,20.1,19,20.1h31.2l-32.1-88.6L568.03,0h-49.9l-47,49.9c-5.5,5.8-11,11.5-16.5,18.4h-.5L477.43,0h-40.7l-54.7,158.6h0Z"/>
    </g>
  </g>
</svg>