<svg width="24" height="24" viewBox="0 0 24 24" fill="none" xmlns="http://www.w3.org/2000/svg">
<path d="M21.4701 11.1854L20.4401 9.75543C20.2095 9.43164 19.9051 9.16749 19.5521 8.98488C19.199 8.80227 18.8075 8.70647 18.4101 8.70543H14.0301V6.56543C14.0301 5.90239 13.7667 5.2665 13.2978 4.79766C12.829 4.32882 12.1931 4.06543 11.5301 4.06543H4.56006C3.89759 4.06728 3.26277 4.33126 2.79433 4.7997C2.32589 5.26814 2.06191 5.90296 2.06006 6.56543V16.5054C2.06006 16.9033 2.21809 17.2848 2.4994 17.5661C2.7807 17.8474 3.16223 18.0054 3.56006 18.0054H4.78006C4.85557 18.5405 5.12176 19.0302 5.52966 19.3846C5.93756 19.739 6.45972 19.9341 7.00006 19.9341C7.54039 19.9341 8.06255 19.739 8.47045 19.3846C8.87835 19.0302 9.14455 18.5405 9.22006 18.0054H14.7801C14.8556 18.5405 15.1218 19.0302 15.5297 19.3846C15.9376 19.739 16.4597 19.9341 17.0001 19.9341C17.5404 19.9341 18.0626 19.739 18.4705 19.3846C18.8784 19.0302 19.1445 18.5405 19.2201 18.0054H20.4401C20.8379 18.0054 21.2194 17.8474 21.5007 17.5661C21.782 17.2848 21.9401 16.9033 21.9401 16.5054V12.6354C21.9376 12.115 21.7734 11.6083 21.4701 11.1854ZM7.00006 18.9354C6.75283 18.9354 6.51116 18.8621 6.3056 18.7248C6.10003 18.5874 5.93982 18.3922 5.84521 18.1638C5.7506 17.9354 5.72585 17.684 5.77408 17.4416C5.82231 17.1991 5.94136 16.9764 6.11618 16.8015C6.29099 16.6267 6.51372 16.5077 6.7562 16.4594C6.99867 16.4112 7.25001 16.436 7.47841 16.5306C7.70682 16.6252 7.90204 16.7854 8.0394 16.991C8.17675 17.1965 8.25006 17.4382 8.25006 17.6854C8.25006 18.0169 8.11836 18.3349 7.88394 18.5693C7.64952 18.8037 7.33158 18.9354 7.00006 18.9354ZM13.0301 17.0054H9.15006C9.00446 16.5496 8.71772 16.1518 8.33126 15.8695C7.9448 15.5872 7.47862 15.4351 7.00006 15.4351C6.5215 15.4351 6.05532 15.5872 5.66886 15.8695C5.2824 16.1518 4.99566 16.5496 4.85006 17.0054H3.56006C3.42745 17.0054 3.30027 16.9528 3.20651 16.859C3.11274 16.7652 3.06006 16.638 3.06006 16.5054V6.56543C3.06006 6.1676 3.21809 5.78607 3.4994 5.50477C3.7807 5.22346 4.16223 5.06543 4.56006 5.06543H11.5301C11.9279 5.06543 12.3094 5.22346 12.5907 5.50477C12.872 5.78607 13.0301 6.1676 13.0301 6.56543V17.0054ZM17.0001 18.9354C16.7528 18.9354 16.5112 18.8621 16.3056 18.7248C16.1 18.5874 15.9398 18.3922 15.8452 18.1638C15.7506 17.9354 15.7258 17.684 15.7741 17.4416C15.8223 17.1991 15.9414 16.9764 16.1162 16.8015C16.291 16.6267 16.5137 16.5077 16.7562 16.4594C16.9987 16.4112 17.25 16.436 17.4784 16.5306C17.7068 16.6252 17.902 16.7854 18.0394 16.991C18.1767 17.1965 18.2501 17.4382 18.2501 17.6854C18.2501 18.0169 18.1184 18.3349 17.8839 18.5693C17.6495 18.8037 17.3316 18.9354 17.0001 18.9354ZM20.9401 16.5054C20.9401 16.638 20.8874 16.7652 20.7936 16.859C20.6998 16.9528 20.5727 17.0054 20.4401 17.0054H19.1501C19.0045 16.5496 18.7177 16.1518 18.3313 15.8695C17.9448 15.5872 17.4786 15.4351 17.0001 15.4351C16.5215 15.4351 16.0553 15.5872 15.6689 15.8695C15.2824 16.1518 14.9957 16.5496 14.8501 17.0054H14.0301V9.70543H18.4101C18.6486 9.70703 18.8835 9.76492 19.0955 9.87439C19.3075 9.98386 19.4906 10.1418 19.6301 10.3354L20.6601 11.7654C20.84 12.02 20.9377 12.3236 20.9401 12.6354V16.5054Z" fill="#929292" stroke="#929292"/>
<path d="M18.0291 12.2051H16.0291C15.8964 12.2051 15.7693 12.1524 15.6755 12.0586C15.5817 11.9649 15.5291 11.8377 15.5291 11.7051C15.5291 11.5725 15.5817 11.4453 15.6755 11.3515C15.7693 11.2578 15.8964 11.2051 16.0291 11.2051H18.0291C18.1617 11.2051 18.2888 11.2578 18.3826 11.3515C18.4764 11.4453 18.5291 11.5725 18.5291 11.7051C18.5291 11.8377 18.4764 11.9649 18.3826 12.0586C18.2888 12.1524 18.1617 12.2051 18.0291 12.2051Z" fill="#929292" stroke="#929292"/>
</svg>
