<svg width="181" height="89" viewBox="0 0 181 89" fill="none" xmlns="http://www.w3.org/2000/svg">
<path d="M22.3336 71.4852C22.1758 70.5188 20.7381 71.0284 20.1419 70.6125C18.6107 69.5348 20.288 68.668 21.077 68.3165C22.4213 67.725 23.9175 67.725 25.3786 67.6957C25.7 67.6898 26.4306 67.8362 26.2611 67.3325C25.9864 66.5125 25.402 67.0982 24.2331 66.5125C23.7129 66.249 22.8713 65.9561 23.0642 64.7554C23.3447 63.01 24.2331 60.0697 26.6644 59.6948C28.8969 59.3493 29.4113 58.0724 29.7795 56.1923C31.4101 47.8576 30.8198 39.7103 28.0612 31.6977C26.6001 27.4513 27.2137 26.192 31.3516 24.6106C42.7016 20.2704 50.9481 12.5507 56.214 1.59789C56.4886 1.02975 56.9621 0.33275 57.2251 0.0808928C57.6985 -0.381821 57.5348 1.26403 57.5056 1.89075C56.927 14.3957 51.8949 24.8331 42.7892 33.326C41.8015 34.2456 41.147 35.0421 41.2229 36.4947C41.7723 47.4476 38.7975 57.4984 33.2744 66.864C33.1342 67.1041 32.2283 68.4161 32.0822 68.955C32.0822 68.9725 32.2575 69.0955 32.3043 69.0721C32.8303 68.8202 38.5637 61.7097 40.4632 58.1251C41.6671 55.8525 42.3977 55.999 43.736 57.885C45.2614 60.0345 46.6816 62.231 47.8564 64.5914C48.5051 65.9092 48.4116 66.7175 46.7752 67.1334C40.7086 68.6855 35.5012 71.8601 30.8198 75.9425C23.7772 82.0925 15.3378 84.9977 6.12109 83.4982C5.41976 83.3811 4.71257 83.1527 4.57814 82.1159C4.47294 81.3018 5.41975 81.1729 6.00419 80.8801C8.09651 79.8375 10.1479 78.7247 12.0065 77.2838C13.6546 76.0069 15.595 75.9425 17.5529 75.8488C17.9561 75.8312 18.9789 75.8781 18.9789 75.2924C18.9789 75.2924 18.9789 74.7067 17.8334 74.8121C17.2197 74.8707 16.2963 74.5602 16.5067 73.5997C16.6528 72.9437 17.1262 71.9304 17.8042 71.7781" fill="#1CB6E8"/>
<path d="M10.8843 88.8456C7.28416 88.7695 6.69973 88.7695 3.71321 88.254C2.35145 88.0198 0.855264 87.598 0.270818 87.0123C-0.167517 86.5731 -0.00387216 84.9448 0.270818 84.6695C0.855264 84.0838 5.94579 84.9331 8.45306 85.2552C20.142 87.0123 25.741 82.3091 32.2459 76.9732C36.6526 73.3535 41.3749 70.3195 46.9564 68.8845C47.6577 68.7029 48.6571 67.7892 49.2299 68.9314C49.6507 69.7748 49.002 70.6241 48.4993 71.3386C47.9149 72.1704 47.0265 72.5862 46.0739 72.8615C40.6385 74.4253 36.1032 77.5413 31.6673 80.9443C27.2839 84.3063 22.9006 87.8616 17.1087 88.5352C15.0865 88.7695 13.0351 88.7402 10.8843 88.8398V88.8456Z" fill="#333134"/>
<path d="M55.2086 27.2696C55.2086 27.8554 54.741 29.7824 54.6242 30.1982C53.4553 34.2982 52.2572 36.6352 51.5617 38.1229C50.0421 41.3678 48.1953 43.6696 45.8575 47.1839C45.5594 47.5295 45.197 48.1445 44.6827 47.957C44.0691 47.7286 44.1041 47.0258 44.1041 46.5982C44.1041 43.6696 44.1041 43.0839 44.6886 40.7411C45.0022 39.4839 45.5866 38.0713 46.4419 37.2268C50.5544 33.6785 51.1175 34.2982 53.9637 28.8335C54.1274 28.5231 55.2086 26.6839 55.2086 27.2696Z" fill="#1CB6E8"/>
<path d="M80.4618 29.9644V49.8041H84.6893V29.9644H91.1789V49.8041H95.4065V29.9644H101.896V55.9229H73.9722V29.9644H80.4618ZM103.034 36.6395H109.524V48.5062C109.524 49.4951 110.055 49.9895 111.118 49.9895C112.107 49.9895 112.713 49.5074 112.935 48.5432L115.568 36.6395H122.058L117.126 57.9995C116.631 60.0762 115.717 61.6461 114.382 62.7091C113.047 63.7969 111.316 64.3408 109.19 64.3408H103.034L104.406 58.222H109.153C110.142 58.222 110.747 57.7399 110.97 56.7758L112.49 50.5458H112.305L110.339 53.9203C109.499 55.379 108.213 56.1083 106.483 56.1083C105.37 56.1083 104.517 55.8116 103.924 55.2183C103.331 54.6249 103.034 53.772 103.034 52.6595V36.6395ZM123.243 49.2107C125.69 49.7299 128.224 49.9895 130.845 49.9895C132.105 49.9895 133.02 49.9277 133.589 49.8041C134.182 49.6557 134.479 49.4456 134.479 49.1737C134.479 48.7287 133.861 48.5062 132.625 48.5062H125.987V43.9078H132.625C133.861 43.9078 134.479 43.6853 134.479 43.2403C134.479 42.6717 133.243 42.3874 130.77 42.3874C129.51 42.3874 128.249 42.4492 126.988 42.5728C125.727 42.6964 124.479 42.8942 123.243 43.1661V36.9361C124.306 36.7383 125.443 36.5777 126.654 36.454C127.866 36.3304 129.089 36.2686 130.325 36.2686C133.712 36.2686 136.333 36.726 138.187 37.6407C140.041 38.5554 140.968 39.841 140.968 41.4974C140.968 42.8818 140.326 43.9696 139.04 44.7607C137.754 45.5518 135.95 45.9968 133.626 46.0957V46.2812C135.95 46.38 137.754 46.825 139.04 47.6162C140.326 48.4073 140.968 49.4951 140.968 50.8795C140.968 52.5359 140.029 53.8215 138.15 54.7362C136.296 55.6509 133.663 56.1083 130.251 56.1083C129.089 56.1083 127.903 56.0465 126.691 55.9229C125.48 55.824 124.33 55.6756 123.243 55.4779V49.2107Z" fill="#333134"/>
<path d="M150.971 56.1083C147.979 56.1083 145.643 55.243 143.962 53.5124C142.305 51.7571 141.477 49.3344 141.477 46.2441C141.477 43.1538 142.305 40.7557 143.962 39.0499C145.643 37.3193 147.979 36.454 150.971 36.454C152.454 36.454 153.789 36.6765 154.976 37.1215C156.162 37.5665 157.163 38.2217 157.979 39.087C158.795 39.9275 159.413 40.9535 159.833 42.1649C160.278 43.3516 160.501 44.7113 160.501 46.2441C160.501 47.7769 160.278 49.1613 159.833 50.3974C159.413 51.6088 158.795 52.6471 157.979 53.5124C157.163 54.353 156.162 54.9958 154.976 55.4408C153.789 55.8858 152.454 56.1083 150.971 56.1083ZM151.008 49.9895C153.01 49.9895 154.011 48.7534 154.011 46.2812C154.011 45.0203 153.764 44.0932 153.27 43.4999C152.8 42.8818 152.046 42.5728 151.008 42.5728C149.945 42.5728 149.166 42.8695 148.671 43.4628C148.202 44.0561 147.967 44.9956 147.967 46.2812C147.967 47.542 148.202 48.4814 148.671 49.0995C149.166 49.6928 149.945 49.9895 151.008 49.9895ZM161.721 36.6395H167.283V43.3145H174.07V36.6395H179.632V55.9229H174.07V49.2478H167.283V55.9229H161.721V36.6395Z" fill="#1CB6E8"/>
</svg>
