<svg width="24" height="37" viewBox="0 0 24 37" fill="none" xmlns="http://www.w3.org/2000/svg">
<path d="M9.04929 29.5261C8.98535 29.1345 8.40279 29.3409 8.16124 29.1724C7.54078 28.7357 8.22043 28.3845 8.54013 28.2421C9.08481 28.0024 9.69107 28.0024 10.2831 27.9905C10.4134 27.9882 10.7094 28.0475 10.6407 27.8434C10.5294 27.5111 10.2926 27.7485 9.81894 27.5111C9.60818 27.4043 9.26716 27.2857 9.34531 26.7991C9.45898 26.0919 9.81894 24.9005 10.8041 24.7486C11.7087 24.6086 11.9171 24.0912 12.0663 23.3294C12.727 19.9522 12.4879 16.6509 11.3701 13.4043C10.778 11.6836 11.0267 11.1734 12.7034 10.5326C17.3023 8.77399 20.6438 5.64599 22.7775 1.20794C22.8888 0.97773 23.0806 0.695309 23.1872 0.593258C23.379 0.405768 23.3127 1.07266 23.3009 1.3266C23.0664 6.39358 21.0274 10.6228 17.3378 14.0641C16.9376 14.4367 16.6724 14.7594 16.7032 15.348C16.9258 19.7861 15.7204 23.8586 13.4825 27.6535C13.4256 27.7508 13.0586 28.2824 12.9994 28.5008C12.9994 28.5079 13.0704 28.5577 13.0894 28.5483C13.3025 28.4462 15.6257 25.565 16.3953 24.1126C16.8832 23.1917 17.1792 23.2511 17.7215 24.0153C18.3396 24.8863 18.915 25.7763 19.391 26.7327C19.6539 27.2667 19.616 27.5942 18.9529 27.7627C16.4948 28.3916 14.3848 29.6779 12.4879 31.3321C9.63423 33.8241 6.21461 35.0012 2.48003 34.3937C2.19585 34.3462 1.9093 34.2536 1.85484 33.8336C1.81221 33.5037 2.19585 33.4515 2.43267 33.3328C3.28047 32.9104 4.11169 32.4594 4.86477 31.8756C5.53259 31.3582 6.31881 31.3321 7.11214 31.2942C7.27555 31.287 7.68997 31.306 7.68997 31.0687C7.68997 31.0687 7.68997 30.8314 7.22581 30.8741C6.97715 30.8978 6.603 30.772 6.68825 30.3828C6.74745 30.117 6.93927 29.7064 7.21397 29.6447" fill="#1CB6E8"/>
<path d="M4.4103 36.5609C2.95152 36.53 2.71471 36.53 1.50458 36.3212C0.952801 36.2263 0.34655 36.0554 0.109734 35.818C-0.0678774 35.6401 -0.00156899 34.9803 0.109734 34.8687C0.34655 34.6314 2.40921 34.9755 3.42515 35.1061C8.16146 35.818 10.4302 33.9123 13.0659 31.7502C14.8515 30.2835 16.765 29.0542 19.0266 28.4727C19.3107 28.3991 19.7157 28.0289 19.9478 28.4917C20.1183 28.8335 19.8554 29.1776 19.6518 29.4671C19.4149 29.8041 19.055 29.9726 18.669 30.0842C16.4666 30.7178 14.6289 31.9804 12.8315 33.3593C11.0553 34.7216 9.27923 36.1622 6.93239 36.4351C6.11301 36.53 5.28178 36.5182 4.4103 36.5585V36.5609Z" fill="#333134"/>
<path d="M22.3703 11.6103C22.3703 11.8476 22.1808 12.6284 22.1334 12.7969C21.6598 14.4583 21.1743 15.4052 20.8925 16.008C20.2768 17.3228 19.5285 18.2555 18.5812 19.6795C18.4604 19.8195 18.3136 20.0687 18.1052 19.9928C17.8565 19.9002 17.8708 19.6154 17.8708 19.4422C17.8708 18.2555 17.8708 18.0182 18.1076 17.0689C18.2346 16.5595 18.4715 15.9871 18.818 15.6449C20.4844 14.2071 20.7125 14.4583 21.8658 12.244C21.9321 12.1182 22.3703 11.373 22.3703 11.6103Z" fill="#1CB6E8"/>
</svg>
