<?xml version="1.0" encoding="utf-8"?>
<!-- Generator: Adobe Illustrator 27.0.0, SVG Export Plug-In . SVG Version: 6.00 Build 0)  -->
<svg version="1.1" id="Слой_1" xmlns="http://www.w3.org/2000/svg" xmlns:xlink="http://www.w3.org/1999/xlink" x="0px" y="0px"
	 viewBox="0 0 20 20" style="enable-background:new 0 0 20 20;" xml:space="preserve">
<style type="text/css">
	.st0{fill:#929292;}
</style>
<path class="st0" d="M16.2,8.1L16.1,8L16,7.9l-3.3-4L12,4.1v2.3c0,0.4-0.2,0.8-0.5,1c-0.3,0.2-0.7,0.3-1.1,0.2L8.6,7l-0.9,4.4
	l-3.9,3.7c-0.1,0.1-0.2,0.2-0.2,0.3s0,0.2,0,0.3c0,0.2,0.1,0.4,0.2,0.5c0.1,0.1,0.3,0.2,0.5,0.2h0.5l7.9-7.4
	c0.4-0.3,0.8-0.6,1.2-0.7s0.9-0.3,1.4-0.3H16.2z M14.4,9.8c-0.3,0.1-0.5,0.3-0.7,0.4l-6.8,6.3h1.3c0.2,0,0.3,0,0.4-0.1
	c0.1,0,0.3-0.1,0.4-0.2l6.8-6.3l0.2-0.2c0,0,0.1-0.1,0.1-0.2h-1C14.9,9.6,14.6,9.7,14.4,9.8z M4.3,18c-0.6,0-1.2-0.2-1.6-0.7
	S2,16.4,2,15.8c0-0.4,0.1-0.7,0.2-1c0.1-0.3,0.3-0.5,0.5-0.8l3.6-3.4l0.9-4.2C7.2,6,7.4,5.8,7.7,5.6s0.6-0.2,1-0.1L10.5,6V3.9
	c0-0.3,0.1-0.5,0.2-0.8s0.4-0.4,0.7-0.4l1.1-0.3c0.2-0.1,0.5-0.1,0.7,0c0.2,0.1,0.4,0.2,0.6,0.4L17.4,7C17.8,7.6,18,8.3,18,9
	s-0.3,1.3-0.9,1.8l-7,6.4c-0.2,0.2-0.5,0.4-0.9,0.5c-0.3,0.1-0.7,0.2-1,0.2H4.3z"/>
</svg>
